# xmcd
#
# Track frame offsets: 
#        182
#        15445
#        27147
#        46372
#        65272
#        79010
#        94432
#        110435
#        124465
#        143102
#
# Disc length: 2127 seconds
#
# Revision: 7
# Processed by: cddbd v1.5.2PL0 Copyright (c) Steve Scherf et al.
# Submitted via: ExactAudioCopy v0.95b3
#
DISCID=80084d0a
DTITLE=Blues Brothers - Best Of The Blues Brothers
DYEAR=1981
DGENRE=Blues
TTITLE0=Expressway To Your Heart
TTITLE1=Everybody Needs Somebody To Love
TTITLE2=I Don't Know
TTITLE3=She Caught The Katy
TTITLE4=Soul Man
TTITLE5=Rubber Biscuit
TTITLE6=Goin' Back To Miami
TTITLE7=Gimme Some Lovin'
TTITLE8="B" Movie Box Car Blues
TTITLE9=Flip, Flop and Fly
EXTD=YEAR: 1981
EXTT0=
EXTT1=
EXTT2=
EXTT3=
EXTT4=
EXTT5=
EXTT6=
EXTT7=
EXTT8=
EXTT9=
PLAYORDER=
